<svg width="50" height="49" viewBox="0 0 50 49" fill="none" xmlns="http://www.w3.org/2000/svg">
<g id="streamline:subscription-cashflow">
<g id="Group">
<path id="Vector" d="M29.7185 17.4224C29.4334 16.6285 28.9047 15.941 28.2053 15.4549C27.5058 14.9687 26.6701 14.7078 25.8134 14.7081H22.6076C21.6931 14.7034 20.8092 15.0321 20.127 15.6307C19.4447 16.2293 19.0126 17.0553 18.9141 17.9488C18.8156 18.8424 19.0578 19.7401 19.5938 20.4684C20.1298 21.1966 20.9216 21.7037 21.816 21.8915L26.6974 22.9381C27.6955 23.1529 28.5777 23.7225 29.1744 24.5376C29.7711 25.3527 30.0403 26.3557 29.9302 27.354C29.8201 28.3522 29.3386 29.2753 28.578 29.9459C27.8175 30.6164 26.8316 30.9871 25.8098 30.9867H23.0514C21.248 30.9867 19.7143 29.8564 19.1463 28.276M24.4324 14.7081V10.6367M24.4324 35.0581V30.9902M7.16467 45.9989V37.277H16.0399" stroke="#F04031" stroke-width="2" stroke-linecap="round" stroke-linejoin="round"/>
<path id="Vector_2" d="M47.6056 19.8711C48.5451 24.6373 47.795 29.5655 45.4732 33.8821C43.1514 38.1987 39.3892 41.6595 34.7772 43.7212C30.1652 45.7828 24.9644 46.3287 19.9911 45.2732C15.0178 44.2176 10.5536 41.6203 7.29909 37.889M2.39436 27.927C1.4549 23.1608 2.20495 18.2326 4.52678 13.916C6.84861 9.59934 10.6108 6.1386 15.2228 4.07693C19.8348 2.01525 25.0356 1.46936 30.0089 2.52492C34.9822 3.58048 39.4464 6.17775 42.7009 9.90907" stroke="#F04031" stroke-width="2" stroke-linecap="round" stroke-linejoin="round"/>
<path id="Vector_3" d="M42.7009 2.01562V10.4352H33.854" stroke="#F04031" stroke-width="2" stroke-linecap="round" stroke-linejoin="round"/>
</g>
</g>
</svg>
