<svg width="42" height="43" viewBox="0 0 42 43" fill="none" xmlns="http://www.w3.org/2000/svg">
<g id="Group 1014">
<path id="Rectangle 1" d="M25 38.643H2C1.44772 38.643 1 38.1953 1 37.643V5.5C1 3.29086 2.79086 1.5 5 1.5H31.6666C33.8757 1.5 35.6666 3.29086 35.6666 5.5V18.6429" stroke="#F71B07" stroke-width="2" stroke-linecap="round"/>
<path id="Vector 7" d="M6.3334 15.7852L25 15.7852" stroke="#F71B07" stroke-width="2" stroke-linecap="round" stroke-linejoin="round"/>
<path id="Vector 9" d="M6.3334 24.3574L19.6667 24.3574" stroke="#F71B07" stroke-width="2" stroke-linecap="round" stroke-linejoin="round"/>
<path id="Ellipse 127" d="M35.9998 30.0706C35.9998 33.5293 33.3989 36.2135 30.3332 36.2135C27.2674 36.2135 24.6665 33.5293 24.6665 30.0706C24.6665 26.6119 27.2674 23.9277 30.3332 23.9277C33.3989 23.9277 35.9998 26.6119 35.9998 30.0706Z" stroke="#F71B07" stroke-width="2"/>
<path id="Vector 231" d="M37 37.2139L41 41.4996" stroke="#F71B07" stroke-width="2" stroke-linecap="round"/>
</g>
</svg>
