<svg width="40" height="40" viewBox="0 0 40 40" fill="none" xmlns="http://www.w3.org/2000/svg">
<g id="icon" clip-path="url(#clip0_737_1517)">
<path id="Vector" d="M9.32515 31.25H11.8252V20H9.32515V31.25ZM28.1752 31.25H30.6752V7.5H28.1752V31.25ZM18.7502 31.25H21.2502V25H18.7502V31.25ZM18.7502 20H21.2502V15H18.7502V20ZM4.03765 40C2.88765 40 1.92765 39.615 1.15765 38.845C0.385985 38.0733 0.000152588 37.1125 0.000152588 35.9625V4.0375C0.000152588 2.8875 0.385985 1.9275 1.15765 1.1575C1.92765 0.385833 2.88765 0 4.03765 0H35.9627C37.1127 0 38.0727 0.385833 38.8427 1.1575C39.6143 1.9275 40.0002 2.8875 40.0002 4.0375V35.9625C40.0002 37.1125 39.6152 38.0725 38.8452 38.8425C38.0735 39.6142 37.1127 40 35.9627 40H4.03765ZM4.03765 37.5H35.9627C36.346 37.5 36.6985 37.34 37.0202 37.02C37.3402 36.6983 37.5002 36.3458 37.5002 35.9625V4.0375C37.5002 3.65417 37.3402 3.30167 37.0202 2.98C36.6985 2.66 36.346 2.5 35.9627 2.5H4.03765C3.65432 2.5 3.30182 2.66 2.98015 2.98C2.66015 3.30167 2.50015 3.65417 2.50015 4.0375V35.9625C2.50015 36.3458 2.66015 36.6983 2.98015 37.02C3.30182 37.34 3.65432 37.5 4.03765 37.5Z" fill="#F71B07"/>
</g>
<defs>
<clipPath id="clip0_737_1517">
<rect width="40" height="40" fill="white"/>
</clipPath>
</defs>
</svg>
