<svg width="42" height="43" viewBox="0 0 42 43" fill="none" xmlns="http://www.w3.org/2000/svg">
<g id="Group 1020">
<path id="Rectangle 1" d="M1 10.7111C1 10.11 1 9.80941 1.08582 9.52598C1.17163 9.24255 1.33835 8.99247 1.6718 8.4923L5.14587 3.2812C5.72716 2.40927 6.0178 1.9733 6.45999 1.73665C6.90217 1.5 7.42614 1.5 8.47407 1.5H33.5259C34.5739 1.5 35.0978 1.5 35.54 1.73665C35.9822 1.9733 36.2728 2.40927 36.8541 3.2812L40.3282 8.4923C40.6616 8.99247 40.8284 9.24255 40.9142 9.52598C41 9.80941 41 10.11 41 10.7111V37.5C41 39.3856 41 40.3284 40.4142 40.9142C39.8284 41.5 38.8856 41.5 37 41.5H5C3.11438 41.5 2.17157 41.5 1.58579 40.9142C1 40.3284 1 39.3856 1 37.5V10.7111Z" stroke="#F71B07" stroke-width="2"/>
<path id="Vector 3" d="M1 14.834H41" stroke="#F71B07" stroke-width="2" stroke-linecap="round"/>
<path id="Rectangle 4124" d="M14.3333 14.984C14.3333 14.9011 14.4005 14.834 14.4833 14.834H27.5166C27.5995 14.834 27.6666 14.9011 27.6666 14.984V27.3725C27.6666 27.7223 27.285 27.9384 26.9851 27.7584L21.1286 24.2445C21.0494 24.197 20.9505 24.197 20.8713 24.2445L15.0148 27.7584C14.7149 27.9384 14.3333 27.7223 14.3333 27.3725V14.984Z" stroke="#F71B07" stroke-width="2"/>
</g>
</svg>
