<svg width="42" height="43" viewBox="0 0 42 43" fill="none" xmlns="http://www.w3.org/2000/svg">
<g id="Group 1031">
<path id="Rectangle 4214" d="M30.4737 18.4987H37.8C38.9201 18.4987 39.4802 18.4987 39.908 18.7167C40.2843 18.9084 40.5903 19.2144 40.782 19.5907C41 20.0185 41 20.5786 41 21.6987V38.3C41 39.4201 41 39.9802 40.782 40.408C40.5903 40.7843 40.2843 41.0903 39.908 41.282C39.4802 41.5 38.9201 41.5 37.8 41.5H4.2C3.07989 41.5 2.51984 41.5 2.09202 41.282C1.71569 41.0903 1.40973 40.7843 1.21799 40.408C1 39.9802 1 39.4201 1 38.3V21.6987C1 20.5786 1 20.0185 1.21799 19.5907C1.40973 19.2144 1.71569 18.9084 2.09202 18.7167C2.51984 18.4987 3.0799 18.4987 4.2 18.4987H11.5263" stroke="#F71B07" stroke-width="2" stroke-linecap="round"/>
<path id="Vector" d="M7.31592 41.5003L11.5264 18.499M34.6843 41.5003L30.4738 18.499" stroke="#F71B07" stroke-width="2" stroke-linecap="round"/>
<path id="Vector 437" d="M21 34.5993V29.999" stroke="#F71B07" stroke-width="2" stroke-linecap="round"/>
<path id="Rectangle 1" d="M17 10.7005V2C17 1.7643 17 1.64645 17.0732 1.57322C17.1464 1.5 17.2643 1.5 17.5 1.5H27.9474L24.5789 6.10026L27.9474 10.7005H17ZM17 10.7005V21.0511" stroke="#F71B07" stroke-width="2" stroke-linecap="round" stroke-linejoin="round"/>
</g>
</svg>
