<svg width="43" height="43" viewBox="0 0 43 43" fill="none" xmlns="http://www.w3.org/2000/svg">
<g id="Group 382">
<path id="Intersect" d="M1.46894 37.4647C1.60148 39.392 3.13253 40.9188 5.06008 41.0469C10.2975 41.3949 15.773 41.5 21.4082 41.5C27.0433 41.5 32.5188 41.3949 37.7563 41.0469C39.6838 40.9188 41.2149 39.392 41.3474 37.4647C41.7012 32.3198 41.8163 26.9421 41.8163 21.4082C41.8163 15.8742 41.7012 10.4965 41.3474 5.35161C41.2149 3.42436 39.6837 1.89642 37.7552 1.78449C32.5181 1.48053 27.0429 1.50026 21.4082 1.50026C15.7734 1.50026 10.2983 1.48053 5.06115 1.78449C3.1326 1.89642 1.60148 3.42436 1.46894 5.35161C1.11512 10.4965 1.00002 15.8742 1.00002 21.4082C1.00002 26.9421 1.11512 32.3198 1.46894 37.4647Z" stroke="#F71B07" stroke-width="2"/>
<path id="Vector 5" d="M1 21.9082L41.8163 21.8987" stroke="#F71B07" stroke-width="1.5" stroke-linecap="round" stroke-linejoin="round"/>
<path id="Vector 6" d="M24.94 31.584L32.5081 31.584" stroke="#F71B07" stroke-width="2" stroke-linecap="round" stroke-linejoin="round"/>
<path id="Vector 7" d="M24.94 11.3271L32.5081 11.3271" stroke="#F71B07" stroke-width="2" stroke-linecap="round" stroke-linejoin="round"/>
<ellipse id="Ellipse 7" cx="12.5585" cy="31.5828" rx="3.36359" ry="3.50374" fill="#F71B07"/>
<ellipse id="Ellipse 8" cx="12.5585" cy="11.3289" rx="3.36359" ry="3.50374" fill="#F71B07"/>
</g>
</svg>
