<svg width="42" height="42" viewBox="0 0 42 42" fill="none" xmlns="http://www.w3.org/2000/svg">
<g id="Group 1028">
<path id="Union" d="M1.32698 2.63803L2.21799 3.09202L1.32698 2.63803ZM1.80977 40.4856L2.60926 41.0863H2.60926L1.80977 40.4856ZM39.362 36.5245L38.908 35.6335L39.362 36.5245ZM40.673 35.2134L39.782 34.7594L40.673 35.2134ZM40.673 2.63803L41.564 2.18404V2.18404L40.673 2.63803ZM39.362 1.32698L38.908 2.21799V2.21799L39.362 1.32698ZM2.63803 1.32698L3.09202 2.21799L2.63803 1.32698ZM4.24019 37.2508L5.03968 37.8514L4.24019 37.2508ZM2 5.8C2 4.94342 2.00078 4.36113 2.03755 3.91104C2.07337 3.47262 2.1383 3.24842 2.21799 3.09202L0.435974 2.18404C0.188683 2.66937 0.0901188 3.18608 0.0441936 3.74817C-0.000777721 4.2986 0 4.97642 0 5.8H2ZM2 18.3845V5.8H0V18.3845H2ZM0 18.3845V32.8713H2V18.3845H0ZM0 32.8713V36.8514H2V32.8713H0ZM0 36.8514V40.2153H2V36.8514H0ZM0 40.2153C0 41.6082 1.77262 42.1998 2.60926 41.0863L1.01028 39.8849C1.32762 39.4625 2 39.687 2 40.2153H0ZM2.60926 41.0863L5.03968 37.8514L3.4407 36.6501L1.01028 39.8849L2.60926 41.0863ZM36.2 35.8514H5.03968V37.8514H36.2V35.8514ZM38.908 35.6335C38.7516 35.7131 38.5274 35.7781 38.089 35.8139C37.6389 35.8507 37.0566 35.8514 36.2 35.8514V37.8514C37.0236 37.8514 37.7014 37.8522 38.2518 37.8073C38.8139 37.7613 39.3306 37.6628 39.816 37.4155L38.908 35.6335ZM39.782 34.7594C39.5903 35.1358 39.2843 35.4417 38.908 35.6335L39.816 37.4155C40.5686 37.032 41.1805 36.4201 41.564 35.6674L39.782 34.7594ZM40 32.0514C40 32.908 39.9992 33.4903 39.9624 33.9404C39.9266 34.3788 39.8617 34.603 39.782 34.7594L41.564 35.6674C41.8113 35.1821 41.9099 34.6654 41.9558 34.1033C42.0008 33.5528 42 32.875 42 32.0514H40ZM40 5.8V32.0514H42V5.8H40ZM39.782 3.09202C39.8617 3.24842 39.9266 3.47262 39.9624 3.91104C39.9992 4.36113 40 4.94342 40 5.8H42C42 4.97642 42.0008 4.2986 41.9558 3.74817C41.9099 3.18608 41.8113 2.66937 41.564 2.18404L39.782 3.09202ZM38.908 2.21799C39.2843 2.40973 39.5903 2.71569 39.782 3.09202L41.564 2.18404C41.1805 1.43139 40.5686 0.819468 39.816 0.435974L38.908 2.21799ZM36.2 2C37.0566 2 37.6389 2.00078 38.089 2.03755C38.5274 2.07337 38.7516 2.1383 38.908 2.21799L39.816 0.435974C39.3306 0.188683 38.8139 0.0901188 38.2518 0.0441936C37.7014 -0.000777721 37.0236 0 36.2 0V2ZM5.8 2H36.2V0H5.8V2ZM3.09202 2.21799C3.24842 2.1383 3.47262 2.07337 3.91104 2.03755C4.36113 2.00078 4.94342 2 5.8 2V0C4.97642 0 4.2986 -0.000777721 3.74817 0.0441936C3.18608 0.0901188 2.66937 0.188683 2.18404 0.435974L3.09202 2.21799ZM2.21799 3.09202C2.40973 2.71569 2.71569 2.40973 3.09202 2.21799L2.18404 0.435974C1.43139 0.819467 0.819467 1.43139 0.435974 2.18404L2.21799 3.09202ZM5.03968 37.8514H5.03968V35.8514C4.41077 35.8514 3.81848 36.1473 3.4407 36.6501L5.03968 37.8514Z" fill="#F71B07"/>
<path id="Vector 7" d="M9.70755 12.5898L24.9456 12.5898" stroke="#F71B07" stroke-width="2" stroke-linecap="round" stroke-linejoin="round"/>
<path id="Vector 9" d="M9.70755 21.2812L20.5919 21.2813" stroke="#F71B07" stroke-width="2" stroke-linecap="round" stroke-linejoin="round"/>
</g>
</svg>
