<svg width="42" height="41" viewBox="0 0 42 41" fill="none" xmlns="http://www.w3.org/2000/svg">
<g id="icon">
<path id="Vector" d="M34.0435 10.3182V11.1493C34.0435 17.6186 36.2837 19.3249 41 21.9545V31.6515H36.6522M34.0435 10.3182H37.5217V9.34848C37.5217 9.34848 34.913 7.40909 34.0435 4.5H1V31.6515H4.47826M34.0435 10.3182H25.3478V18.0758H35.8156M36.6522 31.6515C36.6522 34.3292 34.7056 36.5 32.3043 36.5C29.9031 36.5 27.9565 34.3292 27.9565 31.6515M36.6522 31.6515C36.6522 28.9738 34.7056 26.803 32.3043 26.803C29.9031 26.803 27.9565 28.9738 27.9565 31.6515M4.47826 31.6515C4.47826 34.3292 6.42485 36.5 8.82609 36.5C11.2273 36.5 13.1739 34.3292 13.1739 31.6515M4.47826 31.6515C4.47826 28.9738 6.42485 26.803 8.82609 26.803C11.2273 26.803 13.1739 28.9738 13.1739 31.6515M27.9565 31.6515H13.1739M20.1304 18.0758V10.3182H6.21739V18.0758H20.1304Z" stroke="#F71B07" stroke-width="1.5"/>
</g>
</svg>
