<svg width="38" height="43" viewBox="0 0 38 43" fill="none" xmlns="http://www.w3.org/2000/svg">
<g id="Group 1023">
<path id="Vector 4" d="M19.7749 1.7072L35.8583 6.00757C36.2957 6.12453 36.6 6.52083 36.6 6.97363V26.5289C36.6 28.5324 35.6 30.4037 33.9343 31.5171L19.5557 41.1285C19.2194 41.3534 18.7806 41.3534 18.4443 41.1285L4.06564 31.5171C2.4 30.4037 1.39999 28.5324 1.39999 26.5289V6.97363C1.39999 6.52083 1.70425 6.12453 2.14169 6.00757L18.2251 1.7072C18.7328 1.57145 19.2672 1.57145 19.7749 1.7072Z" stroke="#F71B07" stroke-width="2" stroke-linecap="round"/>
<path id="Line 1" d="M13.1332 20.3234L17.6496 24.8518C17.7472 24.9497 17.9059 24.9497 18.0036 24.8518L26.0399 16.7939" stroke="#F71B07" stroke-width="2" stroke-linecap="round"/>
</g>
</svg>
