<svg width="42" height="42" viewBox="0 0 42 42" fill="none" xmlns="http://www.w3.org/2000/svg">
<g id="Group 1025">
<path id="Rectangle 1" d="M12.7647 13.833H9.27702C8.82772 13.833 8.60307 13.833 8.39216 13.8846C8.20519 13.9304 8.02678 14.0059 7.86371 14.1082C7.67977 14.2235 7.52331 14.3848 7.21038 14.7072L1.81336 20.2678C1.513 20.5772 1.36282 20.732 1.2555 20.9113C1.16035 21.0702 1.09032 21.243 1.04787 21.4233C1 21.6267 1 21.8423 1 22.2736V37.6199C1 38.6279 1 39.132 1.19619 39.517C1.36876 39.8557 1.64413 40.1311 1.98282 40.3037C2.36786 40.4999 2.87191 40.4999 3.88 40.4999H38.12C39.1281 40.4999 39.6321 40.4999 40.0172 40.3037C40.3559 40.1311 40.6312 39.8557 40.8038 39.517C41 39.132 41 38.6279 41 37.6198V22.2736C41 21.8423 41 21.6267 40.9521 21.4233C40.9097 21.243 40.8396 21.0702 40.7445 20.9113C40.6372 20.732 40.487 20.5772 40.1866 20.2678L34.7896 14.7072C34.4767 14.3848 34.3202 14.2235 34.1363 14.1082C33.9732 14.0059 33.7948 13.9304 33.6078 13.8846C33.3969 13.833 33.1723 13.833 32.723 13.833H29.2353" stroke="#F71B07" stroke-width="2"/>
<path id="Rectangle 2" d="M41 25.9541H33.0432C32.3414 25.9541 31.9905 25.9541 31.7274 26.1455C31.4644 26.3368 31.3564 26.6707 31.1404 27.3385L29.6832 31.8425C29.4671 32.5103 29.3591 32.8442 29.0961 33.0355C28.8331 33.2269 28.4821 33.2269 27.7803 33.2269H14.2197C13.5179 33.2269 13.1669 33.2269 12.9039 33.0355C12.6409 32.8442 12.5329 32.5103 12.3168 31.8425L10.8596 27.3385C10.6436 26.6707 10.5356 26.3368 10.2726 26.1455C10.0095 25.9541 9.6586 25.9541 8.95675 25.9541H1" stroke="#F71B07" stroke-width="2"/>
<path id="Ellipse 152" d="M29.4118 10.197C29.4118 15.0286 25.6178 18.8941 21 18.8941C16.3823 18.8941 12.5882 15.0286 12.5882 10.197C12.5882 5.36544 16.3823 1.5 21 1.5C25.6178 1.5 29.4118 5.36544 29.4118 10.197Z" stroke="#F71B07" stroke-width="2"/>
</g>
</svg>
