<svg width="42" height="43" viewBox="0 0 42 43" fill="none" xmlns="http://www.w3.org/2000/svg">
<g id="Group 1013">
<path id="Vector 57" d="M34.3333 1.5L35 1.5C37.8284 1.5 39.2427 1.5 40.1213 2.37868C41 3.25736 41 4.67157 41 7.5L41 13.8333C41 14.3047 41 14.5404 40.8536 14.6869C40.7071 14.8333 40.4714 14.8333 40 14.8333L27.6667 14.8333M34.3333 1.5L33.6667 1.5C30.8382 1.5 29.424 1.5 28.5454 2.37868C27.6667 3.25736 27.6667 4.67157 27.6667 7.50001L27.6667 14.8333M34.3333 1.5L5 1.5C3.11438 1.5 2.17157 1.5 1.58578 2.08578C0.999998 2.67157 0.999998 3.61438 0.999998 5.5L1 41.5L7.66667 39.2778L14.3333 41.5L21 39.2778L27.6667 41.5L27.6667 14.8333" stroke="#F71B07" stroke-width="2"/>
<path id="Vector 55" d="M9.16328 11.0996H22.2245" stroke="#F71B07" stroke-width="2" stroke-linecap="round"/>
<path id="Vector 58" d="M9.98203 19.0996H13.2473" stroke="#F71B07" stroke-width="2" stroke-linecap="round"/>
<path id="Vector 59" d="M9.16328 27.9004L15.6939 27.9004" stroke="#F71B07" stroke-width="2" stroke-linecap="round"/>
</g>
</svg>
