<svg width="36" height="43" viewBox="0 0 36 43" fill="none" xmlns="http://www.w3.org/2000/svg">
<g id="Group 1027">
<path id="Vector 335" d="M35 40.1969V2.80312C35 2.20633 34.3701 1.81965 33.838 2.08973L26.1247 6.00417C25.8776 6.12957 25.5833 6.11817 25.3466 5.97405L18.4161 1.75341C18.1605 1.59776 17.8395 1.59776 17.5839 1.75341L10.6534 5.97405C10.4167 6.11817 10.1224 6.12957 9.87526 6.00417L2.16204 2.08973C1.62986 1.81965 1 2.20633 1 2.80312V40.1969C1 40.7937 1.62986 41.1804 2.16204 40.9103L9.87526 36.9958C10.1224 36.8704 10.4167 36.8818 10.6534 37.026L17.5839 41.2466C17.8395 41.4022 18.1605 41.4022 18.4161 41.2466L25.3466 37.026C25.5833 36.8818 25.8776 36.8704 26.1247 36.9958L33.838 40.9103C34.3701 41.1804 35 40.7937 35 40.1969Z" stroke="#F71B07" stroke-width="2"/>
<path id="Vector 336" d="M10.2727 15.6172H25.7273" stroke="#F71B07" stroke-width="2" stroke-linecap="round"/>
<path id="Vector 337" d="M10.2727 21.5H25.7273" stroke="#F71B07" stroke-width="2" stroke-linecap="round"/>
<path id="Vector 338" d="M10.2727 27.3828H25.7273" stroke="#F71B07" stroke-width="2" stroke-linecap="round"/>
</g>
</svg>
