<svg width="41" height="41" viewBox="0 0 41 41" fill="none" xmlns="http://www.w3.org/2000/svg">
<g id="icon">
<path id="Subtract" fill-rule="evenodd" clip-rule="evenodd" d="M38.4127 2.03019C38.0341 2.09924 37.4976 2.27788 36.6386 2.56833L8.59237 12.052C6.24119 12.847 4.57855 13.4115 3.49226 13.9468C2.32586 14.5215 2.30969 14.8315 2.30969 14.8939C2.30969 14.9563 2.32586 15.2663 3.49226 15.841C4.57855 16.3763 6.24119 16.9408 8.59237 17.7358L17.0127 20.5831C17.0661 20.6011 17.119 20.6189 17.1716 20.6366C17.9416 20.8954 18.6261 21.1255 19.1294 21.6332C19.6327 22.1408 19.8569 22.8273 20.1091 23.5995C20.1263 23.6522 20.1437 23.7053 20.1612 23.7588L22.9104 32.1254C23.7044 34.5417 24.2693 36.2538 24.8069 37.3732C25.0748 37.931 25.2983 38.2581 25.4795 38.4372C25.6357 38.5917 25.7153 38.5957 25.7605 38.5957C25.8058 38.5957 25.8853 38.5917 26.0415 38.4372C26.2227 38.2581 26.4462 37.931 26.7141 37.3732C27.2518 36.2538 27.8166 34.5417 28.6106 32.1254L37.909 3.82781C38.192 2.96637 38.3661 2.42836 38.4318 2.04915C38.4332 2.04126 38.4345 2.03358 38.4357 2.0261C38.4283 2.02739 38.4206 2.02875 38.4127 2.03019ZM38.6716 2.00596C38.6714 2.00614 38.6681 2.00588 38.6623 2.00464C38.6689 2.00515 38.6718 2.00577 38.6716 2.00596ZM38.4552 1.7993C38.454 1.79356 38.4537 1.79027 38.4538 1.79006C38.454 1.78986 38.4547 1.79272 38.4552 1.7993ZM38.0539 0.0626382C38.6045 -0.0377631 39.3589 -0.0702192 39.9415 0.507361C40.524 1.08494 40.4981 1.8396 40.4024 2.39102C40.3084 2.93288 40.0849 3.61299 39.8326 4.3804L39.809 4.45215L30.5106 32.7498L30.484 32.8308C29.7225 35.1484 29.1184 36.987 28.517 38.2391C28.2119 38.8743 27.8699 39.442 27.4478 39.8594C27.0008 40.3014 26.4393 40.5957 25.7605 40.5957C25.0818 40.5957 24.5203 40.3014 24.0733 39.8594C23.6511 39.442 23.3091 38.8743 23.0041 38.2391C22.4027 36.987 21.7985 35.1484 21.037 32.8308L21.0104 32.7498L18.2612 24.3831C17.9235 23.3554 17.8363 23.1695 17.7091 23.0413C17.582 22.913 17.3968 22.8242 16.3721 22.4777L7.95172 19.6304L7.87058 19.603C5.61836 18.8415 3.82818 18.2361 2.6083 17.6351C1.45391 17.0663 0.309692 16.2665 0.309692 14.8939C0.309692 13.5213 1.45391 12.7215 2.6083 12.1527C3.82818 11.5517 5.61835 10.9463 7.87057 10.1848L7.95171 10.1574L35.998 0.673716L36.0695 0.649528C36.8347 0.390691 37.5129 0.161299 38.0539 0.0626382Z" fill="#F71B07"/>
</g>
</svg>
