<svg width="42" height="40" viewBox="0 0 42 40" fill="none" xmlns="http://www.w3.org/2000/svg">
<g id="Group 1032">
<path id="Rectangle 1" d="M1 5.13281C1 3.24719 1 2.30439 1.58579 1.7186C2.17157 1.13281 3.11438 1.13281 5 1.13281H37C38.8856 1.13281 39.8284 1.13281 40.4142 1.7186C41 2.30439 41 3.24719 41 5.13281V34.6838C41 36.5695 41 37.5123 40.4142 38.098C39.8284 38.6838 38.8856 38.6838 37 38.6838H5C3.11438 38.6838 2.17157 38.6838 1.58579 38.098C1 37.5123 1 36.5695 1 34.6838V5.13281Z" stroke="#F71B07" stroke-width="2"/>
<path id="Rectangle 2" d="M1 15.7363V17.9948C1 19.8804 1 20.8233 1.58579 21.409C2.17157 21.9948 3.11438 21.9948 5 21.9948H10.6989C11.3813 21.9948 11.7225 21.9948 11.9818 22.1779C12.2411 22.3611 12.3553 22.6826 12.5836 23.3256L13.8608 26.9225C14.0891 27.5656 14.2033 27.8871 14.4626 28.0702C14.722 28.2533 15.0631 28.2533 15.7455 28.2533H26.2545C26.9369 28.2533 27.278 28.2533 27.5374 28.0702C27.7967 27.8871 27.9109 27.5656 28.1392 26.9225L29.4164 23.3256C29.6447 22.6826 29.7589 22.3611 30.0182 22.1779C30.2775 21.9948 30.6187 21.9948 31.3011 21.9948H37C38.8856 21.9948 39.8284 21.9948 40.4142 21.409C41 20.8233 41 19.8804 41 17.9948V15.7363" stroke="#F71B07" stroke-width="2"/>
</g>
</svg>
