<svg width="42" height="42" viewBox="0 0 42 42" fill="none" xmlns="http://www.w3.org/2000/svg">
<g id="Group 1021">
<path id="Vector 67" d="M3.10529 36.499L7.57106 31.7851C8.46739 30.839 8.91556 30.3659 9.51074 30.2326C10.1059 30.0993 10.7131 30.3359 11.9274 30.8092L22.1632 34.7985C22.6253 34.9786 22.8564 35.0686 23.0937 35.0457C23.331 35.0227 23.5405 34.89 23.9595 34.6246L29.3331 31.2214C31.3132 29.9673 32.3033 29.3403 33.2194 29.6643C34.1355 29.9884 34.5111 31.0985 35.2623 33.3187L36.7895 37.8323" stroke="#F71B07" stroke-width="2"/>
<path id="Vector 353" d="M9.4209 11.1672V1.83398" stroke="#F71B07" stroke-width="2" stroke-linecap="round"/>
<path id="Vector 354" d="M32.5789 11.1672V1.83398" stroke="#F71B07" stroke-width="2" stroke-linecap="round"/>
<path id="Vector" d="M1 33.8334V7.16699M41 7.16699V33.8334" stroke="#F71B07" stroke-width="2" stroke-linecap="round"/>
<path id="Ellipse 162" d="M32.5946 1.73459C36.0476 2.55351 38.6309 3.71685 39.972 5.05683C41.3132 6.3968 41.3427 7.84415 40.0565 9.19008C38.7702 10.536 36.2346 11.711 32.8154 12.5455C29.3962 13.38 25.2702 13.8309 21.0324 13.8332C16.7946 13.8355 12.6642 13.389 9.23691 12.5582C5.80962 11.7274 3.26262 10.5552 1.96328 9.21065C0.663947 7.8661 0.679449 6.41874 2.00755 5.07732C3.33565 3.73591 5.9077 2.56978 9.3527 1.74714" stroke="#F71B07" stroke-width="2" stroke-linecap="round"/>
<path id="Ellipse 163" d="M41 33.8336C41 35.6017 38.8929 37.2974 35.1421 38.5476C31.3914 39.7978 26.3043 40.5002 21 40.5002C15.6957 40.5002 10.6086 39.7978 6.85787 38.5476C3.10714 37.2974 1 35.6017 1 33.8336" stroke="#F71B07" stroke-width="2"/>
</g>
</svg>
