<svg width="42" height="43" viewBox="0 0 42 43" fill="none" xmlns="http://www.w3.org/2000/svg">
<g id="Group 1022">
<path id="Ellipse 46" d="M24.2107 15.1842C24.2107 16.9573 22.7733 18.3947 21.0001 18.3947C19.227 18.3947 17.7896 16.9573 17.7896 15.1842C17.7896 13.411 19.227 11.9736 21.0001 11.9736C22.7733 11.9736 24.2107 13.411 24.2107 15.1842Z" stroke="#F71B07" stroke-width="2" stroke-linecap="round"/>
<path id="Ellipse 47" d="M28.7461 13.5789C29.1719 12.8415 29.8731 12.3034 30.6956 12.083C31.5181 11.8626 32.3944 11.978 33.1318 12.4038C33.8692 12.8295 34.4073 13.5307 34.6277 14.3532C34.8481 15.1757 34.7327 16.052 34.307 16.7894C33.8812 17.5268 33.18 18.0649 32.3575 18.2853C31.535 18.5057 30.6587 18.3903 29.9213 17.9646C29.1838 17.5388 28.6458 16.8376 28.4254 16.0151C28.205 15.1926 28.3204 14.3163 28.7461 13.5789L28.7461 13.5789Z" stroke="#F71B07" stroke-width="2"/>
<path id="Ellipse 48" d="M7.69332 13.5789C8.11906 12.8415 8.82031 12.3034 9.64279 12.083C10.4653 11.8626 11.3416 11.978 12.079 12.4038C12.8164 12.8295 13.3545 13.5307 13.5749 14.3532C13.7953 15.1757 13.6799 16.052 13.2542 16.7894C12.8284 17.5268 12.1272 18.0649 11.3047 18.2853C10.4822 18.5057 9.60588 18.3903 8.86846 17.9646C8.13104 17.5388 7.59296 16.8376 7.37258 16.0151C7.1522 15.1926 7.26757 14.3163 7.69332 13.5789L7.69332 13.5789Z" stroke="#F71B07" stroke-width="2"/>
<path id="Subtract" d="M38.8121 29.9777L39.803 29.8426V29.8426L38.8121 29.9777ZM25.4213 23.9937L24.84 23.1801L23.7752 23.9407L24.7888 24.7683L25.4213 23.9937ZM28.296 29.9767L27.3031 30.0952L28.296 29.9767ZM37.895 29.9718H27.3686V31.9718H37.895V29.9718ZM37.8213 30.1128C37.8194 30.0988 37.82 30.0756 37.8286 30.0496C37.8368 30.025 37.8492 30.0066 37.8605 29.9945C37.8827 29.9709 37.8996 29.9718 37.895 29.9718V31.9718C38.9758 31.9718 39.9696 31.0645 39.803 29.8426L37.8213 30.1128ZM30.4739 23.5508C33.4751 23.5508 35.1905 24.7091 36.2191 26.0402C37.2857 27.4205 37.6803 29.0788 37.8213 30.1128L39.803 29.8426C39.6402 28.6486 39.1741 26.5934 37.8017 24.8173C36.3912 22.992 34.0894 21.5508 30.4739 21.5508V23.5508ZM26.0026 24.8074C27.0185 24.0816 28.4432 23.5508 30.4739 23.5508V21.5508C28.0719 21.5508 26.2305 22.1867 24.84 23.1801L26.0026 24.8074ZM24.7888 24.7683C26.5609 26.2152 27.1324 28.6654 27.3031 30.0952L29.289 29.8581C29.1059 28.3242 28.4612 25.1848 26.0537 23.2191L24.7888 24.7683ZM27.3031 30.0952C27.3016 30.083 27.3025 30.0626 27.3103 30.0397C27.3177 30.0181 27.3286 30.0021 27.3385 29.9916C27.358 29.9711 27.3728 29.9718 27.3686 29.9718V31.9718C28.4527 31.9718 29.4333 31.0666 29.289 29.8581L27.3031 30.0952Z" fill="#F71B07"/>
<path id="Subtract_2" d="M16.579 23.9937L17.2114 24.7683L18.2251 23.9407L17.1603 23.18L16.579 23.9937ZM3.18809 29.9777L4.17892 30.1128L3.18809 29.9777ZM13.7042 29.9767L12.7112 29.8581V29.8581L13.7042 29.9767ZM11.5264 23.5508C13.5571 23.5508 14.9817 24.0816 15.9977 24.8074L17.1603 23.18C15.7698 22.1866 13.9284 21.5508 11.5264 21.5508V23.5508ZM4.17892 30.1128C4.31991 29.0788 4.71457 27.4205 5.78118 26.0402C6.80976 24.7091 8.52514 23.5508 11.5264 23.5508V21.5508C7.91089 21.5508 5.60904 22.992 4.1986 24.8173C2.8262 26.5934 2.36006 28.6486 2.19726 29.8426L4.17892 30.1128ZM4.10525 29.9718C4.10066 29.9718 4.1175 29.9709 4.13971 29.9945C4.15107 30.0066 4.16345 30.025 4.1716 30.0496C4.1802 30.0756 4.18083 30.0988 4.17892 30.1128L2.19726 29.8426C2.03065 31.0644 3.02441 31.9718 4.10525 31.9718V29.9718ZM14.6316 29.9718H4.10525V31.9718H14.6316V29.9718ZM14.6316 29.9718C14.6274 29.9718 14.6422 29.9711 14.6617 29.9916C14.6716 30.0021 14.6825 30.0181 14.6899 30.0397C14.6977 30.0626 14.6986 30.083 14.6971 30.0952L12.7112 29.8581C12.5669 31.0666 13.5475 31.9718 14.6316 31.9718V29.9718ZM14.6971 30.0952C14.8678 28.6653 15.4393 26.2152 17.2114 24.7683L15.9465 23.2191C13.539 25.1848 12.8944 28.3242 12.7112 29.8581L14.6971 30.0952Z" fill="#F71B07"/>
<path id="Rectangle 4161" d="M21.0002 22.5527C26.789 22.5527 28.03 27.7502 28.2961 29.9786C28.3615 30.527 27.921 30.9738 27.3687 30.9738H14.6317C14.0794 30.9738 13.6388 30.527 13.7043 29.9786C13.9704 27.7502 15.2114 22.5527 21.0002 22.5527Z" stroke="#F71B07" stroke-width="2" stroke-linecap="round"/>
<path id="Vector 280" d="M34.6841 41.5H39.4999C40.3283 41.5 40.9999 40.8284 40.9999 40V35.1842" stroke="#F71B07" stroke-width="2" stroke-linecap="round"/>
<path id="Vector 282" d="M34.6841 1.5H39.4999C40.3283 1.5 40.9999 2.17157 40.9999 3V7.81579" stroke="#F71B07" stroke-width="2" stroke-linecap="round"/>
<path id="Vector 281" d="M7.3158 41.5H2.49996C1.67153 41.5 0.999958 40.8284 0.999958 40V35.1842" stroke="#F71B07" stroke-width="2" stroke-linecap="round"/>
<path id="Vector 283" d="M7.3158 1.5H2.49996C1.67153 1.5 0.999958 2.17157 0.999958 3V7.81579" stroke="#F71B07" stroke-width="2" stroke-linecap="round"/>
</g>
</svg>
