<svg width="41" height="42" viewBox="0 0 41 42" fill="none" xmlns="http://www.w3.org/2000/svg">
<g id="Group 1030">
<path id="Vector 8" d="M27.6667 18.6807L20.394 25.9533L15.5455 21.1049L8.27284 28.3775" stroke="#F71B07" stroke-width="2" stroke-linecap="round" stroke-linejoin="round"/>
<path id="Rectangle 25" d="M25.2424 4.13672H4.2C3.07989 4.13672 2.51984 4.13672 2.09202 4.35471C1.71569 4.54645 1.40973 4.85241 1.21799 5.22874C1 5.65656 1 6.21662 1 7.33672V37.3C1 38.4201 1 38.9802 1.21799 39.408C1.40973 39.7843 1.71569 40.0903 2.09202 40.282C2.51984 40.5 3.0799 40.5 4.2 40.5H34.1635C35.2836 40.5 35.8437 40.5 36.2715 40.282C36.6478 40.0903 36.9538 39.7843 37.1455 39.408C37.3635 38.9802 37.3635 38.4201 37.3635 37.3V16.2578" stroke="#F71B07" stroke-width="2" stroke-linecap="round"/>
<path id="Ellipse 194" d="M40 6.56055C40 9.35541 37.7343 11.6211 34.9394 11.6211C32.1445 11.6211 29.8788 9.35541 29.8788 6.56055C29.8788 3.76569 32.1445 1.5 34.9394 1.5C37.7343 1.5 40 3.76569 40 6.56055Z" stroke="#F71B07" stroke-width="2" stroke-linecap="round"/>
</g>
</svg>
