<svg width="40" height="39" viewBox="0 0 40 39" fill="none" xmlns="http://www.w3.org/2000/svg">
<g id="Group">
<path id="Vector" d="M4.7663 3.471C4.83108 2.92673 5.08295 2.42605 5.47458 2.06309C5.8662 1.70013 6.37061 1.49988 6.89296 1.5H33.107C33.6294 1.49988 34.1338 1.70013 34.5254 2.06309C34.917 2.42605 35.1689 2.92673 35.2337 3.471L38.9835 34.971C39.0211 35.2876 38.9943 35.609 38.9046 35.9139C38.815 36.2187 38.6646 36.5001 38.4634 36.7393C38.2623 36.9784 38.0151 37.17 37.7381 37.3011C37.4611 37.4323 37.1607 37.5001 36.8568 37.5H3.14319C2.83933 37.5001 2.53894 37.4323 2.26194 37.3011C1.98494 37.17 1.73767 36.9784 1.53655 36.7393C1.33543 36.5001 1.18505 36.2187 1.09539 35.9139C1.00574 35.609 0.978859 35.2876 1.01654 34.971L4.7663 3.471Z" stroke="#F04031" stroke-width="2" stroke-linejoin="round"/>
<path id="Vector_2" d="M10.3584 12.75C10.3584 12.75 12.5011 17.25 20.0007 17.25C27.5002 17.25 29.6429 12.75 29.6429 12.75" stroke="#F04031" stroke-width="2" stroke-linecap="round" stroke-linejoin="round"/>
</g>
</svg>
