<svg width="147" height="24" viewBox="0 0 147 24" fill="none" xmlns="http://www.w3.org/2000/svg">
<path id="Ellipse 81" d="M0.731321 1.42168C0.498435 1.27329 0.429936 0.964207 0.578323 0.731321C0.72671 0.498436 1.03579 0.429935 1.26868 0.578323L0.731321 1.42168ZM147 1L144.281 6.09335L141.23 1.19225L147 1ZM1.26868 0.578323C2.17289 1.15446 3.08142 1.72017 3.9942 2.27535L3.47454 3.12973C2.55579 2.57091 1.64136 2.00152 0.731321 1.42168L1.26868 0.578323ZM9.54759 5.4938C11.4271 6.52991 13.3232 7.52203 15.2352 8.46922L14.7913 9.3653C12.866 8.41154 10.957 7.41263 9.06482 6.36954L9.54759 5.4938ZM21.0484 11.1882C23.01 12.0522 24.9871 12.8694 26.979 13.6389L26.6187 14.5717C24.6122 13.7966 22.6209 12.9735 20.6454 12.1034L21.0484 11.1882ZM33.0175 15.8098C35.0483 16.486 37.0934 17.113 39.1519 17.69L38.8821 18.6529C36.8079 18.0716 34.7475 17.4398 32.7016 16.7586L33.0175 15.8098ZM45.3701 19.2701C47.4536 19.7455 49.5498 20.1699 51.658 20.5422L51.4841 21.527C49.3595 21.1517 47.2471 20.7241 45.1477 20.2451L45.3701 19.2701ZM58.0012 21.5003C60.1181 21.7662 62.2463 21.9798 64.3849 22.1403L64.3101 23.1375C62.1548 22.9758 60.01 22.7605 57.8766 22.4925L58.0012 21.5003ZM70.7915 22.4601C71.8587 22.4867 72.9282 22.5 74 22.5V23.5C72.9199 23.5 71.842 23.4865 70.7666 23.4598L70.7915 22.4601ZM74 22.5C75.0718 22.5 76.1413 22.4867 77.2085 22.4601L77.2334 23.4598C76.158 23.4865 75.0801 23.5 74 23.5V22.5ZM83.6151 22.1403C85.7537 21.9798 87.8819 21.7662 89.9988 21.5003L90.1234 22.4925C87.99 22.7605 85.8452 22.9758 83.6899 23.1375L83.6151 22.1403ZM96.342 20.5422C98.4502 20.1699 100.546 19.7455 102.63 19.2701L102.852 20.2451C100.753 20.7241 98.6405 21.1517 96.5159 21.527L96.342 20.5422ZM108.848 17.69C110.907 17.113 112.952 16.486 114.982 15.8098L115.298 16.7586C113.252 17.4398 111.192 18.0716 109.118 18.6529L108.848 17.69ZM121.021 13.6389C123.013 12.8694 124.99 12.0522 126.952 11.1882L127.355 12.1034C125.379 12.9735 123.388 13.7966 121.381 14.5717L121.021 13.6389ZM132.765 8.46922C134.677 7.52203 136.573 6.52991 138.452 5.49379L138.935 6.36954C137.043 7.41263 135.134 8.41154 133.209 9.3653L132.765 8.46922ZM0.462642 1.84335C-0.00312972 1.54658 -0.140129 0.928413 0.156646 0.462643C0.453421 -0.00312996 1.07159 -0.140129 1.53736 0.156647L0.462642 1.84335ZM147 1L141.563 11.1867L135.459 1.3845L147 1ZM1.53736 0.156647C2.43866 0.730923 3.34424 1.2948 4.25403 1.84817L3.21471 3.55692C2.29298 2.99628 1.37559 2.42506 0.462642 1.84335L1.53736 0.156647ZM9.78898 5.05593C11.6621 6.08854 13.5518 7.07727 15.4572 8.02118L14.5694 9.81334C12.6375 8.8563 10.7219 7.854 8.82343 6.80741L9.78898 5.05593ZM21.25 10.7307C23.2046 11.5915 25.1746 12.4058 27.1592 13.1725L26.4385 15.0381C24.4248 14.2602 22.4263 13.4342 20.4438 12.561L21.25 10.7307ZM33.1755 15.3354C35.1987 16.0091 37.2361 16.6338 39.2869 17.2085L38.7471 19.1343C36.6652 18.5508 34.5971 17.9167 32.5436 17.233L33.1755 15.3354ZM45.4814 18.7826C47.5568 19.2562 49.6449 19.6789 51.745 20.0499L51.3971 22.0194C49.2643 21.6427 47.1439 21.2134 45.0364 20.7325L45.4814 18.7826ZM58.0635 21.0042C60.1722 21.269 62.292 21.4819 64.4223 21.6417L64.2727 23.6361C62.109 23.4737 59.956 23.2576 57.8143 22.9886L58.0635 21.0042ZM70.804 21.9602C71.867 21.9867 72.9323 22 74 22V24C72.9157 24 71.8337 23.9865 70.7542 23.9596L70.804 21.9602ZM74 22C75.0677 22 76.133 21.9867 77.196 21.9602L77.2458 23.9596C76.1663 23.9865 75.0843 24 74 24V22ZM83.5777 21.6417C85.708 21.4818 87.8278 21.269 89.9365 21.0042L90.1857 22.9886C88.044 23.2576 85.891 23.4737 83.7273 23.6361L83.5777 21.6417ZM96.255 20.0499C98.3551 19.6789 100.443 19.2562 102.519 18.7826L102.964 20.7325C100.856 21.2134 98.7357 21.6427 96.6029 22.0194L96.255 20.0499ZM108.713 17.2085C110.764 16.6338 112.801 16.0091 114.825 15.3354L115.456 17.233C113.403 17.9167 111.335 18.5508 109.253 19.1343L108.713 17.2085ZM120.841 13.1725C122.825 12.4058 124.795 11.5915 126.75 10.7307L127.556 12.561C125.574 13.4342 123.575 14.2602 121.562 15.0381L120.841 13.1725ZM132.543 8.02118C134.448 7.07727 136.338 6.08854 138.211 5.05592L139.177 6.80741C137.278 7.85399 135.363 8.85629 133.431 9.81333L132.543 8.02118Z" fill="#AFAFAF"/>
</svg>
