<svg width="147" height="20" viewBox="0 0 147 20" fill="none" xmlns="http://www.w3.org/2000/svg">
<path id="Ellipse 79" d="M0.768863 18.5566C0.523998 18.6843 0.428978 18.9863 0.556631 19.2311C0.684284 19.476 0.986271 19.571 1.23114 19.4434L0.768863 18.5566ZM147 19L143.854 14.1591L141.235 19.3042L147 19ZM1.23114 19.4434C2.16336 18.9574 3.10019 18.4804 4.04155 18.0127L3.59654 17.1171C2.64939 17.5878 1.7068 18.0677 0.768863 18.5566L1.23114 19.4434ZM9.74303 15.3167C11.6602 14.4556 13.5946 13.6319 15.5456 12.8465L15.1722 11.9188C13.2089 12.7092 11.2624 13.5381 9.33332 14.4045L9.74303 15.3167ZM21.4412 10.6078C23.4191 9.9014 25.4127 9.23384 27.4214 8.60589L27.123 7.65144C25.1015 8.28339 23.0953 8.95519 21.1049 9.66602L21.4412 10.6078ZM33.4768 6.84566C35.5033 6.30059 37.544 5.7955 39.598 5.33116L39.3776 4.35577C37.3103 4.82309 35.2566 5.33143 33.2171 5.87998L33.4768 6.84566ZM45.7759 4.06562C47.8383 3.68654 49.9131 3.3483 51.9998 3.05169L51.8591 2.06165C49.759 2.36017 47.6707 2.70058 45.5951 3.0821L45.7759 4.06562ZM58.2594 2.29105C60.3441 2.08049 62.4397 1.91134 64.5455 1.78435L64.4853 0.786164C62.366 0.913967 60.257 1.0842 58.1589 1.29612L58.2594 2.29105ZM70.8461 1.53154C71.8951 1.51054 72.9464 1.5 74 1.5V0.5C72.9398 0.5 71.8818 0.510611 70.8261 0.531742L70.8461 1.53154ZM74 1.5C75.0536 1.5 76.1049 1.51054 77.1539 1.53154L77.1739 0.531742C76.1182 0.510611 75.0602 0.5 74 0.5V1.5ZM83.4545 1.78435C85.5603 1.91134 87.6559 2.08049 89.7406 2.29105L89.8411 1.29612C87.743 1.0842 85.634 0.913967 83.5147 0.786165L83.4545 1.78435ZM96.0002 3.05169C98.0869 3.3483 100.162 3.68654 102.224 4.06562L102.405 3.0821C100.329 2.70058 98.241 2.36017 96.1409 2.06165L96.0002 3.05169ZM108.402 5.33116C110.456 5.7955 112.497 6.30059 114.523 6.84565L114.783 5.87997C112.743 5.33143 110.69 4.82309 108.622 4.35577L108.402 5.33116ZM120.579 8.60589C122.587 9.23384 124.581 9.9014 126.559 10.6078L126.895 9.66602C124.905 8.95519 122.898 8.28339 120.877 7.65144L120.579 8.60589ZM132.454 12.8465C134.405 13.6319 136.34 14.4556 138.257 15.3167L138.667 14.4045C136.738 13.5381 134.791 12.7092 132.828 11.9188L132.454 12.8465ZM0.537727 18.1133C0.0479952 18.3686 -0.142044 18.9725 0.113262 19.4623C0.368569 19.952 0.972542 20.142 1.46227 19.8867L0.537727 18.1133ZM147 19L140.708 9.31813L135.469 19.6085L147 19ZM1.46227 19.8867C2.39164 19.4022 3.32559 18.9268 4.26405 18.4604L3.37403 16.6694C2.42398 17.1415 1.47852 17.6228 0.537727 18.1133L1.46227 19.8867ZM9.94789 15.7728C11.8591 14.9144 13.7875 14.0933 15.7324 13.3103L14.9854 11.455C13.016 12.2479 11.0635 13.0793 9.12846 13.9484L9.94789 15.7728ZM21.6094 11.0786C23.581 10.3745 25.5683 9.70907 27.5706 9.08311L26.9738 7.17422C24.946 7.80817 22.9333 8.48209 20.9367 9.19515L21.6094 11.0786ZM33.6067 7.3285C35.6267 6.78518 37.6608 6.2817 39.7083 5.81885L39.2673 3.86808C37.1934 4.33689 35.1332 4.84684 33.0872 5.39714L33.6067 7.3285ZM45.8663 4.55738C47.922 4.17952 49.9902 3.84237 52.0702 3.54672L51.7887 1.56662C49.6819 1.8661 47.587 2.2076 45.5047 2.59034L45.8663 4.55738ZM58.3096 2.78852C60.3877 2.57864 62.4765 2.41003 64.5756 2.28344L64.4552 0.287071C62.3292 0.415279 60.2135 0.586057 58.1086 0.798647L58.3096 2.78852ZM70.8561 2.03144C71.9018 2.01051 72.9498 2 74 2V0C72.9364 0 71.8751 0.0106442 70.8161 0.0318419L70.8561 2.03144ZM74 2C75.0502 2 76.0982 2.01051 77.1439 2.03144L77.1839 0.0318421C76.1249 0.0106443 75.0636 0 74 0V2ZM83.4244 2.28344C85.5235 2.41003 87.6123 2.57864 89.6904 2.78852L89.8914 0.798647C87.7865 0.586057 85.6708 0.41528 83.5448 0.287071L83.4244 2.28344ZM95.9298 3.54672C98.0098 3.84237 100.078 4.17952 102.134 4.55738L102.495 2.59034C100.413 2.2076 98.3181 1.8661 96.2113 1.56662L95.9298 3.54672ZM108.292 5.81885C110.339 6.2817 112.373 6.78518 114.393 7.32849L114.913 5.39713C112.867 4.84684 110.807 4.33689 108.733 3.86808L108.292 5.81885ZM120.429 9.08311C122.432 9.70907 124.419 10.3745 126.391 11.0786L127.063 9.19515C125.067 8.48209 123.054 7.80817 121.026 7.17422L120.429 9.08311ZM132.268 13.3103C134.213 14.0933 136.141 14.9144 138.052 15.7728L138.872 13.9484C136.937 13.0793 134.984 12.2479 133.015 11.455L132.268 13.3103Z" fill="#AFAFAF"/>
</svg>
