<svg width="89" height="15" viewBox="0 0 89 15" fill="none" xmlns="http://www.w3.org/2000/svg">
<g id="Frame 62721">
<path id="Line 27" d="M1 6.5C0.447715 6.5 0 6.94772 0 7.5C0 8.05228 0.447715 8.5 1 8.5V6.5ZM88.7071 8.20711C89.0976 7.81658 89.0976 7.18342 88.7071 6.79289L82.3431 0.428932C81.9526 0.0384078 81.3195 0.0384078 80.9289 0.428932C80.5384 0.819457 80.5384 1.45262 80.9289 1.84315L86.5858 7.5L80.9289 13.1569C80.5384 13.5474 80.5384 14.1805 80.9289 14.5711C81.3195 14.9616 81.9526 14.9616 82.3431 14.5711L88.7071 8.20711ZM1 8.5H88V6.5H1V8.5Z" fill="#0A0909"/>
</g>
</svg>
