<svg width="46" height="46" viewBox="0 0 46 46" fill="none" xmlns="http://www.w3.org/2000/svg">
<g id="ic:round-close">
<path id="Vector" d="M40.2026 5.82469C39.95 5.57156 39.6499 5.37073 39.3196 5.2337C38.9893 5.09668 38.6352 5.02615 38.2776 5.02615C37.9199 5.02615 37.5658 5.09668 37.2355 5.2337C36.9052 5.37073 36.6051 5.57156 36.3525 5.82469L23 19.1499L9.64749 5.79738C9.39469 5.54458 9.09457 5.34405 8.76427 5.20723C8.43397 5.07042 8.07995 5 7.72244 5C7.36492 5 7.01091 5.07042 6.68061 5.20723C6.3503 5.34405 6.05018 5.54458 5.79738 5.79738C5.54458 6.05018 5.34405 6.3503 5.20723 6.68061C5.07042 7.01091 5 7.36492 5 7.72244C5 8.07995 5.07042 8.43397 5.20723 8.76427C5.34405 9.09457 5.54458 9.39469 5.79738 9.64749L19.1499 23L5.79738 36.3525C5.54458 36.6053 5.34405 36.9054 5.20723 37.2357C5.07042 37.566 5 37.92 5 38.2776C5 38.6351 5.07042 38.9891 5.20723 39.3194C5.34405 39.6497 5.54458 39.9498 5.79738 40.2026C6.05018 40.4554 6.3503 40.656 6.68061 40.7928C7.01091 40.9296 7.36492 41 7.72244 41C8.07995 41 8.43397 40.9296 8.76427 40.7928C9.09457 40.656 9.39469 40.4554 9.64749 40.2026L23 26.8501L36.3525 40.2026C36.6053 40.4554 36.9054 40.656 37.2357 40.7928C37.566 40.9296 37.92 41 38.2776 41C38.6351 41 38.9891 40.9296 39.3194 40.7928C39.6497 40.656 39.9498 40.4554 40.2026 40.2026C40.4554 39.9498 40.656 39.6497 40.7928 39.3194C40.9296 38.9891 41 38.6351 41 38.2776C41 37.92 40.9296 37.566 40.7928 37.2357C40.656 36.9054 40.4554 36.6053 40.2026 36.3525L26.8501 23L40.2026 9.64749C41.2402 8.60988 41.2402 6.86231 40.2026 5.82469Z" fill="#F71B07"/>
</g>
</svg>
