<svg width="223" height="147" viewBox="0 0 223 147" fill="none" xmlns="http://www.w3.org/2000/svg">
<g filter="url(#filter0_dd_2936_2769)">
<g filter="url(#filter1_d_2936_2769)">
<path d="M8 16C8 11.286 8 8.92893 9.46447 7.46447C10.9289 6 13.286 6 18 6H205C209.714 6 212.071 6 213.536 7.46447C215 8.92893 215 11.286 215 16V111.717C215 116.431 215 118.788 213.536 120.252C212.071 121.717 209.714 121.717 205 121.717H134.644C132.95 121.717 132.102 121.717 131.315 121.986C130.528 122.255 129.859 122.774 128.519 123.812L113.873 135.161C112.73 136.047 112.159 136.489 111.492 136.5C110.825 136.51 110.241 136.085 109.072 135.236L93.0904 123.626C91.7871 122.679 91.1355 122.206 90.3824 121.961C89.6293 121.717 88.8239 121.717 87.213 121.717H18C13.286 121.717 10.9289 121.717 9.46447 120.252C8 118.788 8 116.431 8 111.717V16Z" fill="#DCDCDC"/>
</g>
</g>

</svg>
