<svg width="63" height="50" viewBox="0 0 63 50" fill="none" xmlns="http://www.w3.org/2000/svg">
<g id="Group 1011">
<g id="Group 1007">
<rect id="Rectangle 648" x="1" y="1" width="48" height="34" rx="6" stroke="black" stroke-width="2"/>
</g>
<g id="Group 1008">
<rect id="Rectangle 648_2" x="14" y="15" width="48" height="34" rx="6" fill="black" stroke="white" stroke-width="2"/>
<path id="Vector" d="M42.3225 26.9645C42.0404 26.1769 41.5172 25.495 40.825 25.0128C40.1328 24.5305 39.3058 24.2717 38.4579 24.2721H35.2855C34.3804 24.2674 33.5057 24.5935 32.8305 25.1872C32.1554 25.781 31.7277 26.6003 31.6303 27.4867C31.5328 28.3731 31.7725 29.2636 32.3029 29.986C32.8334 30.7084 33.6169 31.2113 34.502 31.3977L39.3327 32.4359C40.3205 32.6489 41.1935 33.2139 41.7841 34.0225C42.3746 34.831 42.641 35.826 42.532 36.8162C42.4231 37.8064 41.9465 38.7221 41.1939 39.3872C40.4412 40.0524 39.4656 40.4201 38.4544 40.4197H35.7246C33.9399 40.4197 32.4222 39.2985 31.86 37.7308M37.0913 24.2721V20.2334M37.0913 44.4584V40.4232" stroke="white" stroke-width="2" stroke-linecap="round" stroke-linejoin="round"/>
</g>
</g>
</svg>
