<svg width="50" height="49" viewBox="0 0 50 49" fill="none" xmlns="http://www.w3.org/2000/svg">
<g id="streamline:subscription-cashflow">
<g id="Group">
<path id="Vector" d="M29.7185 17.4234C29.4334 16.6294 28.9047 15.942 28.2053 15.4558C27.5058 14.9697 26.6701 14.7088 25.8134 14.7091H22.6076C21.6931 14.7044 20.8092 15.0331 20.127 15.6317C19.4447 16.2303 19.0126 17.0562 18.9141 17.9498C18.8156 18.8434 19.0578 19.7411 19.5938 20.4693C20.1298 21.1976 20.9216 21.7047 21.816 21.8925L26.6974 22.9391C27.6955 23.1539 28.5777 23.7235 29.1744 24.5386C29.7711 25.3537 30.0403 26.3567 29.9302 27.355C29.8201 28.3532 29.3386 29.2763 28.578 29.9468C27.8175 30.6174 26.8316 30.9881 25.8098 30.9877H23.0514C21.248 30.9877 19.7143 29.8574 19.1463 28.2769M24.4324 14.7091V10.6377M24.4324 35.0591V30.9912M7.16467 45.9999V37.278H16.0399" stroke="#080707" stroke-width="2" stroke-linecap="round" stroke-linejoin="round"/>
<path id="Vector_2" d="M47.6056 19.8711C48.5451 24.6373 47.795 29.5655 45.4732 33.8821C43.1514 38.1987 39.3892 41.6595 34.7772 43.7212C30.1652 45.7828 24.9644 46.3287 19.9911 45.2732C15.0178 44.2176 10.5536 41.6203 7.29909 37.889M2.39436 27.927C1.4549 23.1608 2.20495 18.2326 4.52678 13.916C6.84861 9.59934 10.6108 6.1386 15.2228 4.07693C19.8348 2.01525 25.0356 1.46936 30.0089 2.52492C34.9822 3.58048 39.4464 6.17775 42.7009 9.90907" stroke="#080707" stroke-width="2" stroke-linecap="round" stroke-linejoin="round"/>
<path id="Vector_3" d="M42.7009 2.01562V10.4352H33.854" stroke="#080707" stroke-width="2" stroke-linecap="round" stroke-linejoin="round"/>
</g>
</g>
</svg>
