<svg width="26" height="26" viewBox="0 0 26 26" fill="none" xmlns="http://www.w3.org/2000/svg">
<g id="Frame 77">
<g id="&#240;&#159;&#166;&#134; icon &#34;logo instagram&#34;">
<path id="Vector" fill-rule="evenodd" clip-rule="evenodd" d="M18.723 0C22.742 0 26 3.26002 26 7.27702V18.723C26 22.742 22.74 26 18.723 26H7.27702C3.25803 26 0 22.74 0 18.723V7.27702C0 3.25803 3.26002 0 7.27702 0L18.723 0ZM13 6.24C9.26655 6.24 6.24 9.26655 6.24 13C6.24 16.7334 9.26655 19.76 13 19.76C16.7334 19.76 19.76 16.7334 19.76 13C19.76 9.26655 16.7334 6.24 13 6.24ZM13 8.32C15.5847 8.32 17.68 10.4153 17.68 13C17.68 15.5847 15.5847 17.68 13 17.68C10.4153 17.68 8.32 15.5847 8.32 13C8.32 10.4153 10.4153 8.32 13 8.32ZM20.54 3.64C19.5348 3.64 18.72 4.45484 18.72 5.46C18.72 6.46516 19.5348 7.28 20.54 7.28C21.5452 7.28 22.36 6.46516 22.36 5.46C22.36 4.45484 21.5452 3.64 20.54 3.64Z" fill="white"/>
</g>
</g>
</svg>
