<svg width="63" height="50" viewBox="0 0 63 50" fill="none" xmlns="http://www.w3.org/2000/svg">
<g id="Group 1011">
<g id="Group 1007">
<rect id="Rectangle 648" x="1" y="1" width="48" height="34" rx="6" stroke="#DA2919" stroke-width="2"/>
</g>
<g id="Group 1008">
<rect id="Rectangle 648_2" x="14" y="15" width="48" height="34" rx="6" fill="black" stroke="#F04031" stroke-width="2"/>
<path id="Vector" d="M42.3225 26.9635C42.0404 26.176 41.5172 25.494 40.825 25.0118C40.1328 24.5296 39.3058 24.2708 38.4579 24.2711H35.2855C34.3804 24.2664 33.5057 24.5925 32.8305 25.1863C32.1554 25.7801 31.7277 26.5993 31.6303 27.4857C31.5328 28.3721 31.7725 29.2626 32.3029 29.985C32.8334 30.7074 33.6169 31.2104 34.502 31.3967L39.3327 32.4349C40.3205 32.6479 41.1935 33.213 41.7841 34.0215C42.3746 34.83 42.641 35.825 42.532 36.8152C42.4231 37.8055 41.9465 38.7211 41.1939 39.3863C40.4412 40.0514 39.4656 40.4191 38.4544 40.4188H35.7246C33.9399 40.4188 32.4222 39.2975 31.86 37.7298M37.0913 24.2711V20.2324M37.0913 44.4574V40.4222" stroke="#F04031" stroke-width="2" stroke-linecap="round" stroke-linejoin="round"/>
</g>
</g>
</svg>
