<svg width="20" height="20" viewBox="0 0 20 20" fill="none" xmlns="http://www.w3.org/2000/svg">
<path fill-rule="evenodd" clip-rule="evenodd" d="M10.25 0.5C7.66414 0.5 5.18419 1.52723 3.35571 3.35571C1.52723 5.18419 0.5 7.66414 0.5 10.25C0.5 12.8359 1.52723 15.3158 3.35571 17.1443C5.18419 18.9728 7.66414 20 10.25 20C12.8359 20 15.3158 18.9728 17.1443 17.1443C18.9728 15.3158 20 12.8359 20 10.25C20 7.66414 18.9728 5.18419 17.1443 3.35571C15.3158 1.52723 12.8359 0.5 10.25 0.5ZM10.25 18.5C8.06196 18.5 5.96354 17.6308 4.41637 16.0836C2.86919 14.5365 2 12.438 2 10.25C2 8.06196 2.86919 5.96354 4.41637 4.41637C5.96354 2.86919 8.06196 2 10.25 2C12.438 2 14.5365 2.86919 16.0836 4.41637C17.6308 5.96354 18.5 8.06196 18.5 10.25C18.5 12.438 17.6308 14.5365 16.0836 16.0836C14.5365 17.6308 12.438 18.5 10.25 18.5ZM12.575 5.87C12.3159 5.60015 12.0045 5.38581 11.66 5.24C11.2265 5.06643 10.7617 4.98471 10.295 5C9.84201 4.99177 9.39233 5.07864 8.975 5.255C8.6165 5.405 8.3 5.636 8.045 5.93C7.79659 6.20018 7.60301 6.51603 7.475 6.86C7.35599 7.20941 7.28042 7.57213 7.25 7.94H9.095C9.1035 7.70193 9.17932 7.47115 9.31366 7.27442C9.448 7.07769 9.63535 6.92307 9.854 6.8285C9.99892 6.7714 10.1545 6.74633 10.31 6.755C10.4442 6.73368 10.5808 6.73368 10.715 6.755C10.8382 6.80161 10.9506 6.87309 11.045 6.965C11.1492 7.05517 11.2313 7.16808 11.285 7.295C11.3464 7.43696 11.3771 7.59033 11.375 7.745C11.375 8.0045 11.3195 8.2595 11.21 8.495C11.1011 8.73933 10.9652 8.97076 10.805 9.185L10.28 9.815C10.1 10.01 9.92 10.22 9.755 10.43C9.59501 10.639 9.45915 10.8655 9.35 11.105C9.24594 11.3411 9.19474 11.5971 9.2 11.855V12.845H11V12.11C11.0051 11.89 11.0616 11.6742 11.165 11.48C11.2883 11.2641 11.4287 11.0584 11.585 10.865L12.125 10.205C12.3216 9.9779 12.502 9.73731 12.665 9.485C12.8374 9.22772 12.9784 8.95076 13.085 8.66C13.1944 8.35176 13.2502 8.02707 13.25 7.7C13.2527 7.35923 13.2021 7.02014 13.1 6.695C12.9867 6.38527 12.8076 6.10379 12.575 5.87ZM9.2 13.745H10.955V15.5H9.2V13.745Z" fill="black"/>
</svg>
