<svg width="45" height="45" viewBox="0 0 45 45" fill="none" xmlns="http://www.w3.org/2000/svg">
<g id="Frame 62718">
<path id="Line 32" d="M43.0016 23.75C43.83 23.75 44.5016 23.0784 44.5016 22.25C44.5016 21.4216 43.83 20.75 43.0016 20.75V23.75ZM0.93788 21.1893C0.352095 21.7751 0.352095 22.7249 0.93788 23.3107L10.4838 32.8566C11.0696 33.4424 12.0194 33.4424 12.6051 32.8566C13.1909 32.2708 13.1909 31.3211 12.6051 30.7353L4.11986 22.25L12.6051 13.7647C13.1909 13.1789 13.1909 12.2292 12.6051 11.6434C12.0194 11.0576 11.0696 11.0576 10.4838 11.6434L0.93788 21.1893ZM43.0016 20.75L1.99854 20.75V23.75L43.0016 23.75V20.75Z" fill="#DA2919"/>
</g>
</svg>
