<svg width="45" height="45" viewBox="0 0 45 45" fill="none" xmlns="http://www.w3.org/2000/svg">
<g id="Frame 62719">
<path id="Line 32" d="M1.99841 21.25C1.16999 21.25 0.498413 21.9216 0.498413 22.75C0.498413 23.5784 1.16999 24.25 1.99841 24.25L1.99841 21.25ZM44.0621 23.8107C44.6479 23.2249 44.6479 22.2751 44.0621 21.6893L34.5162 12.1434C33.9304 11.5576 32.9806 11.5576 32.3949 12.1434C31.8091 12.7292 31.8091 13.6789 32.3949 14.2647L40.8801 22.75L32.3949 31.2353C31.8091 31.8211 31.8091 32.7708 32.3949 33.3566C32.9806 33.9424 33.9304 33.9424 34.5162 33.3566L44.0621 23.8107ZM1.99841 24.25L43.0015 24.25V21.25L1.99841 21.25L1.99841 24.25Z" fill="#DA2919"/>
</g>
</svg>
