<svg width="33" height="25" viewBox="0 0 33 25" fill="none" xmlns="http://www.w3.org/2000/svg">
<path d="M0.900391 2C0.900391 1.17157 1.57196 0.5 2.40039 0.5H31.4004C32.2288 0.5 32.9004 1.17157 32.9004 2C32.9004 2.82843 32.2288 3.5 31.4004 3.5H2.40039C1.57196 3.5 0.900391 2.82843 0.900391 2ZM0.900391 23C0.900391 22.1716 1.57196 21.5 2.40039 21.5H31.4004C32.2288 21.5 32.9004 22.1716 32.9004 23C32.9004 23.8284 32.2288 24.5 31.4004 24.5H2.40039C1.57196 24.5 0.900391 23.8284 0.900391 23Z" fill="#DA2919"/>
<path d="M10.9004 12.5C10.9004 11.6716 11.572 11 12.4004 11H31.4004C32.2288 11 32.9004 11.6716 32.9004 12.5C32.9004 13.3284 32.2288 14 31.4004 14H12.4004C11.572 14 10.9004 13.3284 10.9004 12.5Z" fill="#DA2919"/>
</svg>
