<svg width="53" height="53" viewBox="0 0 53 53" fill="none" xmlns="http://www.w3.org/2000/svg">
<path id="Vector" d="M32.3506 11.3654C34.6419 11.8116 36.7476 12.93 38.3983 14.5776C40.0491 16.2251 41.1696 18.3268 41.6167 20.6137M32.3506 2C37.111 2.52782 41.55 4.6555 44.9389 8.03367C48.3278 11.4118 50.4652 15.8397 51 20.5903M48.6542 39.2743V46.2983C48.6568 46.9504 48.523 47.5958 48.2613 48.1933C47.9995 48.7907 47.6157 49.327 47.1343 49.7679C46.6528 50.2087 46.0845 50.5443 45.4656 50.7532C44.8467 50.9621 44.1909 51.0397 43.5403 50.981C36.3217 50.1981 29.3879 47.7362 23.2957 43.7931C17.6278 40.1983 12.8224 35.4021 9.22074 29.745C5.25624 23.6369 2.78904 16.6826 2.01904 9.44549C1.96042 8.79803 2.03751 8.14548 2.24541 7.52938C2.45331 6.91329 2.78747 6.34715 3.22659 5.86702C3.66572 5.38688 4.20021 5.00327 4.79601 4.7406C5.39182 4.47793 6.0359 4.34196 6.68725 4.34135H13.7247C14.8632 4.33016 15.9669 4.73254 16.8301 5.47347C17.6933 6.21439 18.2571 7.24332 18.4164 8.36847C18.7134 10.6163 19.2643 12.8234 20.0585 14.9477C20.3741 15.7857 20.4424 16.6964 20.2553 17.572C20.0682 18.4476 19.6336 19.2513 19.0029 19.8879L16.0237 22.8614C19.3631 28.7231 24.2257 33.5765 30.0986 36.9095L33.0778 33.936C33.7157 33.3065 34.5209 32.8727 35.3982 32.6859C36.2754 32.4992 37.1879 32.5674 38.0276 32.8824C40.1559 33.675 42.3672 34.2249 44.6193 34.5213C45.7589 34.6818 46.7996 35.2546 47.5435 36.131C48.2874 37.0073 48.6827 38.126 48.6542 39.2743Z" stroke="white" stroke-width="3" stroke-linecap="round" stroke-linejoin="round"/>
</svg>
