<svg width="13" height="17" viewBox="0 0 13 17" fill="none" xmlns="http://www.w3.org/2000/svg">
<g id="&#240;&#159;&#166;&#134; icon &#34;map pin&#34;">
<path id="Vector" d="M13 7.04545C13 12.1364 6.5 16.5 6.5 16.5C6.5 16.5 0 12.1364 0 7.04545C2.56882e-08 5.30949 0.684819 3.64463 1.90381 2.41712C3.12279 1.18961 4.77609 0.5 6.5 0.5C8.22391 0.5 9.87721 1.18961 11.0962 2.41712C12.3152 3.64463 13 5.30949 13 7.04545Z" fill="white"/>
<path id="Vector_2" d="M6.50001 9.22692C7.69663 9.22692 8.66668 8.25008 8.66668 7.0451C8.66668 5.84011 7.69663 4.86328 6.50001 4.86328C5.30339 4.86328 4.33334 5.84011 4.33334 7.0451C4.33334 8.25008 5.30339 9.22692 6.50001 9.22692Z" stroke="black" stroke-linecap="round" stroke-linejoin="round"/>
</g>
</svg>
