<svg width="24" height="24" viewBox="0 0 24 24" fill="none" xmlns="http://www.w3.org/2000/svg">
<g id="Group">
<path id="Vector" d="M11.9998 14.1004C10.8748 14.1004 9.89978 13.2004 9.89978 12.0004C9.89978 10.8754 10.7998 9.90039 11.9998 9.90039C13.1248 9.90039 14.0998 10.8004 14.0998 12.0004C14.0998 13.1254 13.1248 14.1004 11.9998 14.1004Z" fill="white"/>
<g id="Group_2">
<path id="Vector_2" fill-rule="evenodd" clip-rule="evenodd" d="M14.5498 6.90039H9.44978C8.84978 6.97539 8.54978 7.05039 8.32478 7.12539C8.02478 7.20039 7.79978 7.35039 7.57478 7.57539C7.39674 7.75344 7.31262 7.93149 7.21095 8.14667C7.18415 8.20337 7.15606 8.26284 7.12478 8.32539C7.11318 8.36019 7.09978 8.39679 7.08542 8.43602C7.00696 8.65037 6.89978 8.94324 6.89978 9.45039V14.5504C6.97478 15.1504 7.04978 15.4504 7.12478 15.6754C7.19978 15.9754 7.34978 16.2004 7.57478 16.4254C7.75283 16.6034 7.93088 16.6875 8.14606 16.7892C8.20283 16.8161 8.26216 16.8441 8.32478 16.8754C8.35958 16.887 8.39618 16.9004 8.43541 16.9148C8.64976 16.9932 8.94263 17.1004 9.44978 17.1004H14.5498C15.1498 17.0254 15.4498 16.9504 15.6748 16.8754C15.9748 16.8004 16.1998 16.6504 16.4248 16.4254C16.6028 16.2473 16.6869 16.0693 16.7886 15.8541C16.8155 15.7973 16.8435 15.738 16.8748 15.6754C16.8864 15.6406 16.8998 15.604 16.9142 15.5648C16.9926 15.3504 17.0998 15.0575 17.0998 14.5504V9.45039C17.0248 8.85039 16.9498 8.55039 16.8748 8.32539C16.7998 8.02539 16.6498 7.80039 16.4248 7.57539C16.2467 7.39735 16.0687 7.31323 15.8535 7.21155C15.7968 7.18478 15.7373 7.15664 15.6748 7.12539C15.64 7.11379 15.6034 7.10039 15.5642 7.08603C15.3498 7.00757 15.0569 6.90039 14.5498 6.90039ZM11.9998 8.77539C10.1998 8.77539 8.77478 10.2004 8.77478 12.0004C8.77478 13.8004 10.1998 15.2254 11.9998 15.2254C13.7998 15.2254 15.2248 13.8004 15.2248 12.0004C15.2248 10.2004 13.7998 8.77539 11.9998 8.77539ZM16.0498 8.70039C16.0498 9.11462 15.714 9.45039 15.2998 9.45039C14.8856 9.45039 14.5498 9.11462 14.5498 8.70039C14.5498 8.28617 14.8856 7.95039 15.2998 7.95039C15.714 7.95039 16.0498 8.28617 16.0498 8.70039Z" fill="white"/>
<path id="Vector_3" fill-rule="evenodd" clip-rule="evenodd" d="M0 12C0 5.37258 5.37258 0 12 0C18.6275 0 24 5.37258 24 12C24 18.6275 18.6275 24 12 24C5.37258 24 0 18.6275 0 12ZM9.45 5.775H14.55C15.225 5.85 15.675 5.925 16.05 6.075C16.5 6.3 16.8 6.45 17.175 6.825C17.55 7.2 17.775 7.575 17.925 7.95C18.075 8.325 18.225 8.775 18.225 9.45V14.55C18.15 15.225 18.075 15.675 17.925 16.05C17.7 16.5 17.55 16.8 17.175 17.175C16.8 17.55 16.425 17.775 16.05 17.925C15.675 18.075 15.225 18.225 14.55 18.225H9.45C8.775 18.15 8.325 18.075 7.95 17.925C7.5 17.7 7.2 17.55 6.825 17.175C6.45 16.8 6.225 16.425 6.075 16.05C5.925 15.675 5.775 15.225 5.775 14.55V9.45C5.85 8.775 5.925 8.325 6.075 7.95C6.3 7.5 6.45 7.2 6.825 6.825C7.2 6.45 7.575 6.225 7.95 6.075C8.325 5.925 8.775 5.775 9.45 5.775Z" fill="white"/>
</g>
</g>
</svg>
