<svg width="24" height="24" viewBox="0 0 24 24" fill="none" xmlns="http://www.w3.org/2000/svg">
<g id="Group">
<path id="Vector" d="M12.0273 0H11.9727C5.36035 0 0 5.36035 0 11.9727V12.0273C0 18.6397 5.36035 24 11.9727 24H12.0273C18.6397 24 24 18.6397 24 12.0273V11.9727C24 5.36035 18.6397 0 12.0273 0Z" fill="white"/>
<path id="Vector_2" d="M17.8013 8.68253V10.9486C17.4053 10.9099 16.8907 10.8199 16.3215 10.6114C15.5782 10.339 15.0249 9.96648 14.6625 9.67807V14.2581L14.6532 14.2438C14.6591 14.3346 14.6625 14.4271 14.6625 14.5205C14.6625 16.7949 12.8118 18.6464 10.5365 18.6464C8.2612 18.6464 6.41052 16.7949 6.41052 14.5205C6.41052 12.246 8.2612 10.3936 10.5365 10.3936C10.7593 10.3936 10.978 10.4113 11.1915 10.4458V12.679C10.9864 12.6059 10.7661 12.5664 10.5365 12.5664C9.4594 12.5664 8.5824 13.4425 8.5824 14.5205C8.5824 15.5984 9.4594 16.4746 10.5365 16.4746C11.6136 16.4746 12.4906 15.5976 12.4906 14.5205C12.4906 14.4801 12.4898 14.4397 12.4872 14.3994V5.49911H14.7516C14.76 5.69083 14.7676 5.88422 14.776 6.07593C14.7911 6.45347 14.9257 6.81587 15.1603 7.11268C15.4352 7.46163 15.8413 7.86691 16.4114 8.19063C16.9454 8.49249 17.4465 8.62282 17.8013 8.6842V8.68253Z" fill="black"/>
</g>
</svg>
